<svg width="45" height="46" viewBox="0 0 45 46" fill="none" xmlns="http://www.w3.org/2000/svg">
<path d="M3.07482 21.0614C5.42571 21.8489 7.97673 20.5782 8.77267 18.2231C9.5686 15.8681 8.28947 13.3212 5.9344 12.5253C3.57934 11.7293 1.03249 13.0085 0.23656 15.3635C-0.559375 17.7186 0.719756 20.2654 3.07482 21.0614Z" fill="#04ACB5" fill-opacity="0.3858"/>
<path d="M35.7135 38.4342C36.8212 40.6579 35.9157 43.3608 33.692 44.4686C31.4682 45.5763 28.7653 44.6708 27.6576 42.4471C26.5499 40.2233 27.4554 37.5204 29.6791 36.4127C31.9029 35.305 34.6058 36.2104 35.7135 38.4342Z" fill="#04ACB5" fill-opacity="0.128571"/>
<path d="M15.3683 45.7408C13.0132 44.9449 11.7425 42.3939 12.53 40.043C13.326 37.6879 15.8728 36.4088 18.2279 37.2047C20.5829 38.0007 21.8621 40.5475 21.0661 42.9026C20.2702 45.2576 17.7233 46.5368 15.3683 45.7408Z" fill="#04ACB5" fill-opacity="0.2572"/>
<path d="M9.56469 29.6744C10.6724 31.8981 9.76694 34.601 7.54319 35.7087C5.31943 36.8164 2.61654 35.911 1.50882 33.6872C0.401107 31.4635 1.30657 28.7606 3.53033 27.6529C5.75408 26.5451 8.45697 27.4506 9.56469 29.6744Z" fill="#04ACB5" fill-opacity="0.3858"/>
<path d="M16.3031 9.5598C14.0793 10.6675 11.3764 9.76205 10.2687 7.5383C9.16099 5.31454 10.0665 2.61165 12.2902 1.50394C14.514 0.396219 17.2169 1.30168 18.3246 3.52544C19.4323 5.74919 18.5268 8.45208 16.3031 9.5598Z" fill="#04ACB5" fill-opacity="0.5144"/>
<path d="M44.4735 12.2853C45.5812 14.509 44.6758 17.2119 42.452 18.3196C40.2282 19.4273 37.5254 18.5219 36.4176 16.2981C35.3099 14.0744 36.2154 11.3715 38.4391 10.2638C40.6629 9.15605 43.3658 10.0615 44.4735 12.2853Z" fill="#04ACB5"/>
<path d="M33.4606 5.92538C32.6647 8.28045 30.1137 9.55119 27.7628 8.76365L27.7544 8.76783C25.3993 7.97189 24.1202 5.42505 24.9161 3.06998C25.7121 0.714916 28.2547 -0.551643 30.614 0.23172C32.9732 1.01508 34.2566 3.57032 33.4606 5.92538Z" fill="#04ACB5" fill-opacity="0.7716"/>
</svg>
