<svg width="106" height="46" viewBox="0 0 106 46" fill="none" xmlns="http://www.w3.org/2000/svg">
<path d="M68.2904 6.7047H62.9815V20.2449H59.7775V6.7047H54.4687V3.92309H68.2904V6.7047Z" fill="#04ACB5"/>
<path d="M70.8113 20.4748C70.2188 20.4748 69.6653 20.3829 69.1508 20.199C68.6363 19.9997 68.1919 19.7315 67.8177 19.3944C67.4435 19.0419 67.1473 18.6357 66.929 18.176C66.7263 17.7162 66.625 17.2105 66.625 16.6587C66.625 16.0917 66.7497 15.5706 66.9992 15.0955C67.2642 14.6051 67.6228 14.1913 68.075 13.8541C68.5427 13.517 69.0962 13.2564 69.7355 13.0725C70.3747 12.8733 71.0763 12.7737 71.8403 12.7737C72.386 12.7737 72.9161 12.8196 73.4306 12.9116C73.9607 13.0036 74.4284 13.1338 74.8338 13.3024V12.6128C74.8338 11.8158 74.5999 11.2028 74.1322 10.7737C73.6801 10.3446 73.0018 10.13 72.0975 10.13C71.4427 10.13 70.8035 10.2449 70.1798 10.4748C69.5561 10.7047 68.9169 11.0419 68.2621 11.4863L67.3032 9.53229C68.8779 8.50547 70.5774 7.99206 72.4016 7.99206C74.1634 7.99206 75.5276 8.42118 76.4943 9.27942C77.4765 10.1223 77.9677 11.3484 77.9677 12.9576V16.7047C77.9677 17.0265 78.0222 17.2564 78.1314 17.3944C78.2561 17.5323 78.451 17.6089 78.7161 17.6242V20.2449C78.186 20.3522 77.726 20.4059 77.3362 20.4059C76.7438 20.4059 76.2838 20.2756 75.9564 20.015C75.6446 19.7545 75.4497 19.4097 75.3717 18.9806L75.3016 18.3139C74.7559 19.0189 74.0932 19.5553 73.3137 19.9231C72.5341 20.2909 71.7 20.4748 70.8113 20.4748ZM71.7 18.2219C72.2301 18.2219 72.729 18.13 73.1967 17.9461C73.6801 17.7622 74.0543 17.517 74.3193 17.2105C74.6623 16.9499 74.8338 16.6587 74.8338 16.3369V14.9576C74.4596 14.8196 74.0542 14.7124 73.6177 14.6357C73.1811 14.5438 72.7602 14.4978 72.3548 14.4978C71.544 14.4978 70.8814 14.6817 70.3669 15.0495C69.8524 15.402 69.5951 15.8541 69.5951 16.4059C69.5951 16.9269 69.7978 17.3637 70.2032 17.7162C70.6086 18.0534 71.1075 18.2219 71.7 18.2219Z" fill="#04ACB5"/>
<path d="M89.2687 20.2449L85.7139 15.0265L84.03 16.6587V20.2449H80.8962V3.46333H84.03V13.6472L88.9413 8.22195H92.2856L87.7252 13.3254L92.6131 20.2449H89.2687Z" fill="#04ACB5"/>
<path d="M98.9807 20.4748C97.9985 20.4748 97.1097 20.3139 96.3146 19.9921C95.5194 19.6549 94.8412 19.2028 94.2799 18.6357C93.7186 18.0687 93.2821 17.4097 92.9702 16.6587C92.674 15.9078 92.5259 15.1185 92.5259 14.2909C92.5259 13.4327 92.674 12.6281 92.9702 11.8771C93.2665 11.1108 93.6952 10.4442 94.2565 9.87712C94.8178 9.29474 95.496 8.83497 96.2912 8.49781C97.102 8.16064 98.0062 7.99206 99.0041 7.99206C100.002 7.99206 100.891 8.16064 101.67 8.49781C102.465 8.83497 103.136 9.28708 103.681 9.85413C104.243 10.4212 104.664 11.0802 104.944 11.8311C105.241 12.5821 105.389 13.3637 105.389 14.176C105.389 14.3752 105.381 14.5668 105.365 14.7507C105.365 14.9346 105.35 15.0878 105.319 15.2105H95.8468C95.8936 15.6855 96.0106 16.107 96.1977 16.4748C96.3848 16.8426 96.6264 17.1568 96.9227 17.4173C97.2189 17.6779 97.5541 17.8771 97.9283 18.015C98.3025 18.153 98.6923 18.2219 99.0976 18.2219C99.7213 18.2219 100.306 18.0764 100.852 17.7852C101.413 17.4787 101.795 17.0802 101.998 16.5898L104.687 17.3254C104.235 18.2449 103.51 19.0036 102.512 19.6013C101.53 20.1836 100.353 20.4748 98.9807 20.4748ZM102.161 13.2105C102.083 12.3062 101.74 11.5859 101.132 11.0495C100.54 10.4978 99.8148 10.2219 98.9573 10.2219C98.5364 10.2219 98.1388 10.2986 97.7646 10.4518C97.406 10.5898 97.0864 10.789 96.8057 11.0495C96.5251 11.3101 96.2912 11.6242 96.1041 11.9921C95.9326 12.3599 95.8313 12.766 95.8001 13.2105H102.161Z" fill="#04ACB5"/>
<path d="M54.7863 34.9576C54.7863 33.9614 54.9656 32.9806 55.3242 32.015C55.6984 31.0342 56.2363 30.1606 56.9379 29.3944C57.6395 28.6281 58.4971 28.0074 59.5105 27.5323C60.5239 27.0572 61.6777 26.8196 62.9718 26.8196C64.4997 26.8196 65.8172 27.1491 66.9242 27.8082C68.0467 28.4672 68.8809 29.3254 69.4266 30.3829L66.9476 32.061C66.7293 31.6013 66.4642 31.2181 66.1524 30.9116C65.8406 30.5898 65.5054 30.3369 65.1468 30.153C64.7882 29.9691 64.414 29.8388 64.0242 29.7622C63.6344 29.6702 63.2524 29.6242 62.8782 29.6242C62.0675 29.6242 61.3581 29.7852 60.75 30.107C60.1575 30.4288 59.6586 30.8503 59.2532 31.3714C58.8635 31.8771 58.5672 32.4595 58.3645 33.1185C58.1618 33.7622 58.0605 34.4059 58.0605 35.0495C58.0605 35.7698 58.1774 36.4672 58.4113 37.1415C58.6452 37.8005 58.9726 38.3829 59.3936 38.8886C59.8301 39.3944 60.3446 39.8005 60.9371 40.107C61.5452 40.4135 62.2078 40.5668 62.925 40.5668C63.2992 40.5668 63.689 40.5208 64.0943 40.4288C64.4997 40.3369 64.8817 40.1913 65.2403 39.9921C65.6145 39.7928 65.9575 39.54 66.2693 39.2334C66.5812 38.9116 66.8306 38.5285 67.0177 38.084L69.6604 39.5783C69.3954 40.1913 69.0134 40.7354 68.5145 41.2104C68.0312 41.6702 67.4777 42.061 66.854 42.3829C66.2459 42.7047 65.5911 42.9499 64.8895 43.1185C64.1879 43.2871 63.5019 43.3714 62.8314 43.3714C61.6465 43.3714 60.5629 43.1262 59.5807 42.6357C58.5984 42.1453 57.7487 41.5093 57.0315 40.7277C56.3299 39.9308 55.7764 39.0342 55.371 38.038C54.9812 37.0265 54.7863 35.9997 54.7863 34.9576Z" fill="#04ACB5"/>
<path d="M74.8652 43.4633C74.2727 43.4633 73.7192 43.3714 73.2047 43.1875C72.6902 42.9882 72.2458 42.72 71.8716 42.3829C71.4974 42.0304 71.2012 41.6242 70.9829 41.1645C70.7802 40.7047 70.6789 40.199 70.6789 39.6472C70.6789 39.0802 70.8036 38.5591 71.0531 38.084C71.3181 37.5936 71.6767 37.1798 72.1289 36.8426C72.5966 36.5055 73.1501 36.2449 73.7894 36.061C74.4286 35.8618 75.1302 35.7622 75.8942 35.7622C76.4399 35.7622 76.97 35.8082 77.4845 35.9001C78.0146 35.9921 78.4823 36.1223 78.8877 36.2909V35.6013C78.8877 34.8043 78.6538 34.1913 78.1861 33.7622C77.734 33.3331 77.0557 33.1185 76.1514 33.1185C75.4966 33.1185 74.8574 33.2334 74.2337 33.4633C73.6101 33.6932 72.9708 34.0304 72.316 34.4748L71.3571 32.5208C72.9318 31.494 74.6313 30.9806 76.4555 30.9806C78.2173 30.9806 79.5815 31.4097 80.5482 32.2679C81.5304 33.1108 82.0216 34.3369 82.0216 35.9461V39.6932C82.0216 40.015 82.0761 40.2449 82.1853 40.3829C82.31 40.5208 82.5049 40.5974 82.77 40.6128V43.2334C82.2399 43.3407 81.7799 43.3944 81.3901 43.3944C80.7977 43.3944 80.3377 43.2641 80.0103 43.0036C79.6985 42.743 79.5036 42.3982 79.4256 41.9691L79.3555 41.3024C78.8098 42.0074 78.1471 42.5438 77.3676 42.9116C76.588 43.2794 75.7539 43.4633 74.8652 43.4633ZM75.7539 41.2104C76.284 41.2104 76.7829 41.1185 77.2506 40.9346C77.734 40.7507 78.1081 40.5055 78.3732 40.199C78.7162 39.9384 78.8877 39.6472 78.8877 39.3254V37.9461C78.5135 37.8082 78.1082 37.7009 77.6716 37.6242C77.235 37.5323 76.8141 37.4863 76.4087 37.4863C75.5979 37.4863 74.9353 37.6702 74.4208 38.038C73.9063 38.3905 73.649 38.8426 73.649 39.3944C73.649 39.9154 73.8517 40.3522 74.2571 40.7047C74.6625 41.0419 75.1614 41.2104 75.7539 41.2104Z" fill="#04ACB5"/>
<path d="M92.2468 33.8541C91.2957 33.8695 90.446 34.0534 89.6976 34.4059C88.9492 34.743 88.4113 35.2564 88.0839 35.9461V43.2334H84.9501V31.1875H87.8267V33.7622C88.0449 33.3484 88.3022 32.9806 88.5984 32.6587C88.8947 32.3216 89.2143 32.0304 89.5573 31.7852C89.9003 31.54 90.2433 31.356 90.5863 31.2334C90.9449 31.0955 91.2879 31.0265 91.6154 31.0265C91.7869 31.0265 91.9116 31.0265 91.9895 31.0265C92.0831 31.0265 92.1688 31.0342 92.2468 31.0495V33.8541Z" fill="#04ACB5"/>
<path d="M99.0606 43.4633C98.0784 43.4633 97.1897 43.3024 96.3945 42.9806C95.5994 42.6434 94.9211 42.1913 94.3599 41.6242C93.7986 41.0572 93.362 40.3982 93.0502 39.6472C92.754 38.8963 92.6058 38.107 92.6058 37.2794C92.6058 36.4212 92.754 35.6166 93.0502 34.8656C93.3464 34.0993 93.7752 33.4327 94.3365 32.8656C94.8978 32.2832 95.576 31.8235 96.3711 31.4863C97.1819 31.1491 98.0862 30.9806 99.084 30.9806C100.082 30.9806 100.971 31.1491 101.75 31.4863C102.545 31.8235 103.216 32.2756 103.761 32.8426C104.323 33.4097 104.744 34.0687 105.024 34.8196C105.321 35.5706 105.469 36.3522 105.469 37.1645C105.469 37.3637 105.461 37.5553 105.445 37.7392C105.445 37.9231 105.43 38.0764 105.399 38.199H95.9268C95.9736 38.6741 96.0905 39.0955 96.2776 39.4633C96.4647 39.8311 96.7064 40.1453 97.0026 40.4059C97.2988 40.6664 97.634 40.8656 98.0082 41.0036C98.3824 41.1415 98.7722 41.2104 99.1776 41.2104C99.8012 41.2104 100.386 41.0649 100.932 40.7737C101.493 40.4672 101.875 40.0687 102.078 39.5783L104.767 40.3139C104.315 41.2334 103.59 41.9921 102.592 42.5898C101.61 43.1721 100.433 43.4633 99.0606 43.4633ZM102.241 36.199C102.163 35.2947 101.82 34.5744 101.212 34.038C100.62 33.4863 99.8948 33.2104 99.0373 33.2104C98.6163 33.2104 98.2187 33.2871 97.8445 33.4403C97.4859 33.5783 97.1663 33.7775 96.8857 34.038C96.605 34.2986 96.3711 34.6127 96.184 34.9806C96.0125 35.3484 95.9112 35.7545 95.88 36.199H102.241Z" fill="#04ACB5"/>
<path d="M3.07482 21.0614C5.42571 21.8489 7.97673 20.5782 8.77267 18.2231C9.5686 15.8681 8.28947 13.3212 5.9344 12.5253C3.57934 11.7293 1.03249 13.0085 0.23656 15.3635C-0.559375 17.7186 0.719756 20.2654 3.07482 21.0614Z" fill="#04ACB5" fill-opacity="0.3858"/>
<path d="M35.7135 38.4342C36.8212 40.6579 35.9157 43.3608 33.692 44.4686C31.4682 45.5763 28.7653 44.6708 27.6576 42.4471C26.5499 40.2233 27.4554 37.5204 29.6791 36.4127C31.9029 35.305 34.6058 36.2104 35.7135 38.4342Z" fill="#04ACB5" fill-opacity="0.128571"/>
<path d="M15.3683 45.7408C13.0132 44.9449 11.7425 42.3939 12.53 40.043C13.326 37.6879 15.8728 36.4088 18.2279 37.2047C20.5829 38.0007 21.8621 40.5475 21.0661 42.9026C20.2702 45.2576 17.7233 46.5368 15.3683 45.7408Z" fill="#04ACB5" fill-opacity="0.2572"/>
<path d="M9.56469 29.6744C10.6724 31.8981 9.76694 34.601 7.54319 35.7087C5.31943 36.8164 2.61654 35.911 1.50882 33.6872C0.401107 31.4635 1.30657 28.7606 3.53033 27.6529C5.75408 26.5451 8.45697 27.4506 9.56469 29.6744Z" fill="#04ACB5" fill-opacity="0.3858"/>
<path d="M16.3031 9.5598C14.0793 10.6675 11.3764 9.76205 10.2687 7.5383C9.16099 5.31454 10.0665 2.61165 12.2902 1.50394C14.514 0.396219 17.2169 1.30168 18.3246 3.52544C19.4323 5.74919 18.5268 8.45208 16.3031 9.5598Z" fill="#04ACB5" fill-opacity="0.5144"/>
<path d="M44.4735 12.2853C45.5812 14.509 44.6758 17.2119 42.452 18.3196C40.2282 19.4273 37.5254 18.5219 36.4176 16.2981C35.3099 14.0744 36.2154 11.3715 38.4391 10.2638C40.6629 9.15605 43.3658 10.0615 44.4735 12.2853Z" fill="#04ACB5"/>
<path d="M33.4606 5.92538C32.6647 8.28045 30.1137 9.55119 27.7628 8.76365L27.7544 8.76783C25.3993 7.97189 24.1202 5.42505 24.9161 3.06998C25.7121 0.714916 28.2547 -0.551643 30.614 0.23172C32.9732 1.01508 34.2566 3.57032 33.4606 5.92538Z" fill="#04ACB5" fill-opacity="0.7716"/>
</svg>
